<svg width="20" height="19" viewBox="0 0 20 19" fill="none" xmlns="http://www.w3.org/2000/svg">
<path d="M1.64299 1H18.3573C18.5424 1.06494 18.7103 1.1714 18.8479 1.31123C18.9856 1.45105 19.0895 1.62053 19.1515 1.80668C19.2136 1.99284 19.2322 2.19072 19.2059 2.38518C19.1797 2.57965 19.1093 2.76552 19.0001 2.92857L12.5716 10V17C12.5716 17.824 11.6308 18.2944 10.9716 17.8L8.2287 15.7429C7.72509 15.3651 7.4287 14.7724 7.4287 14.1429V10L1.00013 2.92857C0.89096 2.76552 0.820561 2.57965 0.794322 2.38518C0.768084 2.19072 0.786703 1.99284 0.848754 1.80668C0.910805 1.62053 1.01464 1.45105 1.15231 1.31123C1.28998 1.1714 1.45782 1.06494 1.64299 1Z" stroke="#979797" stroke-width="1.5" stroke-linecap="round" stroke-linejoin="round"/>
</svg>
